<?xml version="1.0" encoding="utf-8"?>
<!-- Generator: Adobe Illustrator 21.0.0, SVG Export Plug-In . SVG Version: 6.00 Build 0)  -->
<svg version="1.1" id="Layer_1" xmlns="http://www.w3.org/2000/svg" xmlns:xlink="http://www.w3.org/1999/xlink" x="0px" y="0px"
	 viewBox="0 0 80 80" style="enable-background:new 0 0 80 80;" xml:space="preserve">
<style type="text/css">
	.st0{fill:#ED1C24;}
	.st1{fill:#FFFFFF;}
</style>
<g>
	<circle class="st0" cx="40" cy="40" r="40"/>
	<path class="st1" d="M40,23.5c-9.4,0-17,7.6-17,17s7.6,17,17,17s17-7.6,17-17S49.4,23.5,40,23.5z M40,55.5c-8.3,0-15-6.7-15-15
		s6.7-15,15-15s15,6.7,15,15S48.3,55.5,40,55.5z M41,48.2h2v2H37v-2h2v-8.8h-1.9v-2H41V48.2z M37.4,33.5c0-1.1,0.9-2,2-2s2,0.9,2,2
		c0,1.1-0.9,2-2,2S37.4,34.6,37.4,33.5z"/>
</g>
</svg>
