<?xml version="1.0" encoding="utf-8"?>
<!-- Generator: Adobe Illustrator 21.0.0, SVG Export Plug-In . SVG Version: 6.00 Build 0)  -->
<svg version="1.1" id="Layer_1" xmlns="http://www.w3.org/2000/svg" xmlns:xlink="http://www.w3.org/1999/xlink" x="0px" y="0px"
	 viewBox="0 0 80 80" style="enable-background:new 0 0 80 80;" xml:space="preserve">
<style type="text/css">
	.st0{fill:#ED1C24;}
	.st1{fill:#FFFFFF;}
</style>
<g>
	<circle class="st0" cx="40" cy="40" r="40"/>
	<path class="st1" d="M34.4,28.5v-2h-5.8v2h-6.1v24h34v-24H34.4z M54.5,50.5h-30v-14h13.1c-0.7,1.2-1.1,2.5-1.1,4c0,4.4,3.6,8,8,8
		s8-3.6,8-8c0-1.5-0.4-2.8-1.1-4h3.1V50.5z M50.5,40.5c0,3.3-2.7,6-6,6c-3.3,0-6-2.7-6-6s2.7-6,6-6C47.8,34.5,50.5,37.2,50.5,40.5z
		 M49.7,34.5c-1.4-1.2-3.2-2-5.2-2s-3.8,0.8-5.2,2H24.5v-4h30v4H49.7z"/>
</g>
</svg>
