<?xml version="1.0" encoding="utf-8"?>
<!-- Generator: Adobe Illustrator 21.0.0, SVG Export Plug-In . SVG Version: 6.00 Build 0)  -->
<svg version="1.1" id="Layer_1" xmlns="http://www.w3.org/2000/svg" xmlns:xlink="http://www.w3.org/1999/xlink" x="0px" y="0px"
	 viewBox="0 0 20 20" style="enable-background:new 0 0 20 20;" xml:space="preserve">
<style type="text/css">
	.st0{fill:#606060;}
</style>
<path class="st0" d="M15.1,12.8l-0.7-0.7l1.6-1.6h-5.5V16l1.6-1.6l0.7,0.7L10,18l-2.8-2.9l0.7-0.7L9.5,16v-5.5H4l1.6,1.6l-0.7,0.7
	L2,10l2.9-2.8l0.7,0.7L4,9.5h5.5V4L7.9,5.6L7.2,4.9L10,2l2.8,2.9l-0.7,0.7L10.5,4v5.5H16l-1.6-1.6l0.7-0.7L18,10L15.1,12.8z"/>
</svg>
