<?xml version="1.0" encoding="utf-8"?>
<!-- Generator: Adobe Illustrator 21.0.0, SVG Export Plug-In . SVG Version: 6.00 Build 0)  -->
<svg version="1.1" id="Layer_1" xmlns="http://www.w3.org/2000/svg" xmlns:xlink="http://www.w3.org/1999/xlink" x="0px" y="0px"
	 viewBox="0 0 20 20" style="enable-background:new 0 0 20 20;" xml:space="preserve">
<style type="text/css">
	.st0{fill:#606060;}
</style>
<g>
	<path class="st0" d="M11.9,3.8c-0.2-0.9-1-1.5-1.9-1.5c-0.9,0-1.7,0.6-1.9,1.5H4.5v1h11v-1C15.5,3.8,11.9,3.8,11.9,3.8z M10,3.2
		c0.4,0,0.7,0.2,0.9,0.5H9.1C9.3,3.5,9.6,3.2,10,3.2z M14,5.7h1v10.5c0,0.8-0.7,1.5-1.5,1.5h-7c-0.8,0-1.5-0.7-1.5-1.5V5.7h1v10.5
		c0,0.3,0.2,0.5,0.5,0.5h7c0.3,0,0.5-0.2,0.5-0.5V5.7z M9,6.7v8H8v-8H9z M12,6.7v8h-1v-8H12z"/>
</g>
</svg>
