<?xml version="1.0" encoding="utf-8"?>
<!-- Generator: Adobe Illustrator 21.0.0, SVG Export Plug-In . SVG Version: 6.00 Build 0)  -->
<svg version="1.1" id="Layer_1" xmlns="http://www.w3.org/2000/svg" xmlns:xlink="http://www.w3.org/1999/xlink" x="0px" y="0px"
	 viewBox="0 0 150 20" style="enable-background:new 0 0 150 20;" xml:space="preserve">
<style type="text/css">
	.st0{fill:#FFFFFF;}
</style>
<g>
	<g>
		<path class="st0" d="M5.7,19.2V0.8h6.9c3.5,0,5.5,2.5,5.5,5.4c0,2.9-2,5.4-5.5,5.4H7.2v7.6H5.7z M16.4,6.2c0-2.3-1.6-3.9-4-3.9
			H7.2v7.9h5.1C14.8,10.1,16.4,8.5,16.4,6.2"/>
		<rect x="37.6" y="0.8" class="st0" width="1.6" height="18.3"/>
		<polygon class="st0" points="73.1,19.2 66.7,10.9 60.3,19.2 58.4,19.2 65.8,9.8 58.8,0.8 60.8,0.8 66.7,8.6 72.7,0.8 74.7,0.8 
			67.7,9.7 75.1,19.2 		"/>
		<path class="st0" d="M108.6,19.2l-1.8-4.5h-9.7l-1.8,4.5h-1.8L101,0.8h2l7.5,18.3H108.6z M101.9,2.5l-4.3,10.7h8.7L101.9,2.5z"/>
		<polygon class="st0" points="142.8,19.2 131.2,3.4 131.2,19.2 129.7,19.2 129.7,0.8 131.3,0.8 142.8,16.4 142.8,0.8 144.3,0.8 
			144.3,19.2 		"/>
	</g>
</g>
</svg>
